# xmcd
#
# Track frame offsets: 
#        150
#        16263
#        36163
#        49851
#        61157
#        74781
#        86420
#        99006
#        110914
#        124496
#        135477
#        147495
#        160045
#        172415
#        186459
#        198029
#        209789
#        221064
#        232329
#        244492
#        257230
#        268634
#
# Disc length: 3728 seconds
#
# Revision: 2
# Processed by: cddbd v1.5.1PL2 Copyright (c) Steve Scherf et al.
# Submitted via: ExactAudioCopy v0.95b3
#
DISCID=640e8e16
DTITLE=Johnny Ace - The Chronoligical, Johnny Ace 1951-1954 (BSt)
DYEAR=1900
DGENRE=Blues
TTITLE0=Midnight Hours Journey
TTITLE1=I Cried
TTITLE2=My Song
TTITLE3=Follow The Rule
TTITLE4=Angel
TTITLE5=Aces Wild
TTITLE6=Cross My Heart
TTITLE7=Burley Cutie
TTITLE8=The Clock
TTITLE9=Please Forgive Me
TTITLE10=Saving M Love For You
TTITLE11=Yes, Baby
TTITLE12=I Still Love You So
TTITLE13=Anymore
TTITLE14=So Lonely
TTITLE15=You've Been Gone So Long
TTITLE16=Pledging My Love
TTITLE17=Never Let Me Go
TTITLE18=Don't You Know
TTITLE19=No Money
TTITLE20=How Can You Be So Mean
TTITLE21=I'm Crazy Baby
EXTD=
EXTT0=
EXTT1=
EXTT2=
EXTT3=
EXTT4=
EXTT5=
EXTT6=
EXTT7=
EXTT8=
EXTT9=
EXTT10=
EXTT11=
EXTT12=
EXTT13=
EXTT14=
EXTT15=
EXTT16=
EXTT17=
EXTT18=
EXTT19=
EXTT20=
EXTT21=
PLAYORDER=
